<?xml version="1.0" encoding="UTF-8" standalone="no"?>
<!DOCTYPE svg PUBLIC "-//W3C//DTD SVG 1.1//EN" "http://www.w3.org/Graphics/SVG/1.1/DTD/svg11.dtd">
<svg width="100%" height="100%" viewBox="0 0 144 144" version="1.1" xmlns="http://www.w3.org/2000/svg" xmlns:xlink="http://www.w3.org/1999/xlink" xml:space="preserve" xmlns:serif="http://www.serif.com/" style="fill-rule:evenodd;clip-rule:evenodd;stroke-linecap:round;stroke-linejoin:round;stroke-miterlimit:1.5;">
    <g transform="matrix(1,0,0,1,-707.83062,-749.72693)">
        <g>
            <clipPath id="_clip1">
                <path d="M851.566,785.661L851.566,857.528C851.566,877.36 835.464,893.462 815.632,893.462L743.764,893.462C723.932,893.462 707.831,877.36 707.831,857.528L707.831,785.661C707.831,765.828 723.932,749.727 743.764,749.727L815.632,749.727C835.464,749.727 851.566,765.828 851.566,785.661Z"/>
            </clipPath>
            <g clip-path="url(#_clip1)">
                <path d="M851.566,785.661L851.566,857.528C851.566,877.36 835.464,893.462 815.632,893.462L743.764,893.462C723.932,893.462 707.831,877.36 707.831,857.528L707.831,785.661C707.831,765.828 723.932,749.727 743.764,749.727L815.632,749.727C835.464,749.727 851.566,765.828 851.566,785.661Z" style="fill:white;"/>
                <g transform="matrix(1.212529,0,0,1.212529,-176.162038,-188.221211)">
                    <path d="M729.061,863.306C729.053,863.022 729.049,862.738 729.049,862.453L729.049,803.182C729.049,786.826 742.328,773.547 758.684,773.547L817.955,773.547C821.208,773.547 824.339,774.072 827.268,775.042C827.249,775.187 827.229,775.331 827.206,775.475C826.276,781.288 827.866,787.222 831.579,791.791C833.659,794.371 834.905,797.651 834.905,801.22C834.905,804.789 833.659,808.069 831.578,810.649C827.866,815.218 826.276,821.152 827.207,826.965C827.718,830.24 827.158,833.703 825.373,836.794C823.589,839.885 820.869,842.103 817.778,843.296C812.278,845.397 807.934,849.742 805.834,855.241C804.64,858.332 802.422,861.052 799.331,862.836C796.24,864.621 792.777,865.182 789.502,864.67C783.689,863.739 777.755,865.33 773.186,869.042C770.606,871.122 767.326,872.368 763.757,872.368C760.188,872.368 756.908,871.122 754.328,869.042C749.759,865.329 743.825,863.74 738.012,864.67C735.044,865.134 731.921,864.716 729.061,863.306Z" style="fill:rgb(255,247,177);"/>
                </g>
                <g>
                    <g transform="matrix(1,0,0,1,33.503058,67.589056)">
                        <path d="M723.426,825.873C722.881,825.114 722.347,824.312 721.824,823.464C719.657,819.946 718.926,815.641 717.146,810.386C716.438,808.295 717.57,805.373 717.984,803.081C718.895,798.047 720.045,794.114 726.801,795.004C730.222,795.454 733.103,792.262 733.103,792.262C733.103,792.262 741.265,780.132 743.597,776.341C747.04,770.742 754.101,761.292 754.627,757.393C755.527,750.722 758.097,736.867 765.477,734.631C766.691,734.263 766.102,738.701 771.342,740.549C774.525,741.672 774.692,750.628 776.736,752.076C778.315,753.194 783.533,758.934 787.576,756.804C802.238,749.082 803.97,730.516 809.82,732.141C813.941,733.286 815.927,742.377 818.062,756.775L818.062,789.939C818.062,809.771 801.961,825.873 782.129,825.873L723.426,825.873Z" style="fill:rgb(255,242,243);"/>
                    </g>
                    <g transform="matrix(1,0,0,1,33.503058,67.589056)">
                        <path d="M719.23,810.406C719.219,811.555 718.277,812.48 717.127,812.47C715.977,812.459 715.053,811.517 715.063,810.367C715.063,810.367 715.141,803.925 716.906,799.404C717.852,796.978 719.329,795.111 721.222,794.396C723.717,793.452 725.599,793.111 727.238,792.8C728.555,792.55 729.683,792.347 730.902,791.67C731.197,791.506 731.371,791.133 731.614,790.698C732.064,789.896 732.508,788.876 733.046,787.705C734.838,783.802 737.543,778.39 743.868,773.396C744.77,772.684 746.082,772.838 746.794,773.74C747.507,774.643 747.352,775.954 746.45,776.666C739.826,781.896 737.68,787.677 736.036,791.176C735.053,793.271 734.062,794.681 732.925,795.312C731.582,796.058 730.33,796.422 728.953,796.709C727.278,797.058 725.38,797.278 722.695,798.293C722.162,798.495 721.784,798.986 721.439,799.561C720.922,800.42 720.543,801.485 720.247,802.593C719.265,806.265 719.23,810.406 719.23,810.406Z" style="fill:rgb(41,13,0);"/>
                    </g>
                    <g transform="matrix(1,0,0,1,33.503058,67.589056)">
                        <path d="M756.32,757.746C756.383,758.894 755.502,759.877 754.354,759.94C753.205,760.003 752.222,759.122 752.159,757.974C751.91,753.426 753.553,748.376 755.678,743.969C758.743,737.61 762.739,732.616 762.739,732.616C763.366,731.831 764.463,731.606 765.349,732.08C765.349,732.08 774.882,737.058 778.749,751.538C779.046,752.649 778.385,753.792 777.274,754.089C776.163,754.385 775.02,753.724 774.724,752.613C772.281,743.47 767.312,738.664 764.843,736.756C763.521,738.596 761.292,741.917 759.431,745.778C757.612,749.552 756.106,753.852 756.32,757.746Z" style="fill:rgb(41,13,0);"/>
                    </g>
                    <g transform="matrix(1,0,0,1,33.503058,67.589056)">
                        <path d="M818.062,761.413C818.021,761.419 817.98,761.423 817.938,761.426C816.791,761.509 815.792,760.646 815.709,759.499C814.652,744.972 811.563,738.153 809.891,735.449C807.203,738.882 801.555,745.967 796.53,751.421C793.413,754.804 790.491,757.558 788.595,758.621C787.593,759.183 786.322,758.826 785.759,757.823C785.197,756.82 785.554,755.549 786.557,754.987C788.222,754.053 790.728,751.569 793.466,748.598C800.24,741.245 808.165,730.876 808.165,730.876C808.777,730.076 809.873,729.828 810.769,730.286C810.769,730.286 815.245,732.283 818.062,745.653L818.062,761.413Z" style="fill:rgb(41,13,0);"/>
                    </g>
                    <g transform="matrix(1.530526,0,0,1.530526,-414.117907,-456.458241)">
                        <circle cx="782.803" cy="857.347" r="1.91" style="fill:rgb(41,13,0);"/>
                    </g>
                    <g transform="matrix(1.530526,0,0,1.530526,-391.211809,-453.534256)">
                        <circle cx="782.803" cy="857.347" r="1.91" style="fill:rgb(41,13,0);"/>
                    </g>
                    <g transform="matrix(0.788694,0,0,0.688543,186.908299,320.274272)">
                        <path d="M727.415,804.868C726.191,807.587 725.88,808.485 726.125,811.573" style="fill:none;stroke:rgb(41,13,0);stroke-width:4.22px;"/>
                    </g>
                    <g transform="matrix(0.774377,-0.183389,0.106534,0.676043,118.073629,465.651956)">
                        <path d="M727.415,804.868C726.191,807.587 725.88,808.485 726.125,811.573" style="fill:none;stroke:rgb(41,13,0);stroke-width:4.38px;"/>
                    </g>
                    <path d="M794.018,824.067C792.947,816.061 798.136,809.38 798.765,809.284C799.717,809.139 803.208,812.552 805.438,821.594C805.954,823.687 794.325,826.368 794.018,824.067Z" style="fill:rgb(245,210,212);"/>
                    <g transform="matrix(1,0,0,1,41.154314,3.553361)">
                        <path d="M789.448,822.39C789.234,816.909 801.046,805.391 802.114,805.727C803.308,806.102 806.362,814.224 804.682,823.384C804.015,827.02 789.539,824.71 789.448,822.39Z" style="fill:rgb(245,210,212);"/>
                    </g>
                </g>
                <g transform="matrix(0.945323,0,0,0.945323,39.12019,133.902685)">
                    <path d="M780.186,715.533C775.986,715.633 769.286,715.733 762.186,715.733C761.786,715.733 761.586,715.533 761.586,715.133L761.586,711.833C761.586,708.533 764.586,705.533 765.386,705.533C769.286,705.533 775.986,705.633 780.186,705.633C782.386,705.633 783.486,704.233 783.486,702.833C783.486,701.533 782.386,700.233 780.286,700.233L780.186,700.233C777.286,700.233 773.286,700.333 768.886,700.333C768.686,700.333 768.486,700.233 768.486,700.133C768.486,700.033 768.586,699.933 768.686,699.733C775.086,690.333 782.886,678.333 786.386,672.733C786.786,672.133 786.886,671.533 786.886,671.033C786.886,669.233 785.186,667.733 783.486,667.733C782.486,667.733 781.486,668.233 780.886,669.433C776.986,676.633 767.986,690.733 761.586,699.933C761.386,700.233 761.186,700.433 760.686,700.433L756.186,700.433C755.686,700.333 755.586,700.333 755.286,699.933C748.286,689.433 739.886,676.633 735.886,669.533C735.186,668.233 733.986,667.733 732.986,667.733C731.386,667.733 729.886,668.933 729.886,670.633C729.886,671.233 730.086,672.033 730.586,672.733C734.686,678.933 748.586,700.133 748.586,700.233C748.586,700.333 748.386,700.333 748.086,700.333C743.186,700.333 738.886,700.333 736.086,700.233L735.986,700.233C734.086,700.233 733.086,701.633 733.086,702.933C733.086,704.333 734.086,705.633 735.986,705.633L736.086,705.633C740.686,705.433 745.886,705.433 751.386,705.433C752.586,705.433 755.286,709.633 755.286,711.833L755.286,715.133C755.286,715.533 754.986,715.733 754.586,715.733C747.086,715.733 740.086,715.633 736.086,715.533L735.986,715.533C734.086,715.533 733.086,716.933 733.086,718.333C733.086,719.733 734.086,721.133 735.986,721.133L736.086,721.133C741.586,720.933 747.986,720.933 754.786,720.933C755.186,720.933 755.286,721.133 755.286,721.433L755.286,737.433C755.286,739.633 756.886,740.733 758.486,740.733C760.086,740.733 761.686,739.633 761.686,737.433L761.686,721.533C761.686,721.233 761.786,720.933 762.286,720.933C768.086,720.933 774.086,721.033 780.186,721.133C782.386,721.133 783.386,719.733 783.386,718.333C783.386,716.933 782.386,715.533 780.286,715.533L780.186,715.533Z" style="fill:rgb(41,13,0);fill-rule:nonzero;stroke:rgb(41,13,0);stroke-width:1.06px;stroke-linecap:butt;stroke-miterlimit:2;"/>
                </g>
            </g>
        </g>
    </g>
</svg>
